<svg width="44" height="44" viewBox="0 0 44 44" fill="none" xmlns="http://www.w3.org/2000/svg">
<path d="M21.9921 0C9.84106 0 0 9.84106 0 21.9921C0 34.1431 9.84106 43.9842 21.9921 43.9842C34.1431 43.9842 43.9842 34.1431 43.9842 21.9921C43.9842 9.84106 34.1431 0 21.9921 0ZM30.1561 34.7285C29.4599 33.795 28.8587 32.7825 28.3366 31.7382C29.3333 31.3585 30.2985 30.8839 31.2161 30.3301C30.963 30.1561 30.7415 29.982 30.5041 29.7763C25.0457 32.3553 19.0334 32.3553 13.5117 29.7763C13.2744 29.9662 13.037 30.1402 12.7997 30.3301C13.7015 30.868 14.6667 31.3427 15.6634 31.7224C15.1413 32.7666 14.5243 33.7634 13.8439 34.7127C11.0752 33.8425 8.2589 32.5293 5.34772 30.3617C4.76232 23.9856 5.93312 17.5146 10.3157 10.9011C12.4991 9.88853 14.8249 9.14491 17.2614 8.71773C17.5462 9.25566 17.9101 9.98346 18.1474 10.553C20.6789 10.1575 23.242 10.1575 25.8209 10.553C26.0741 9.98346 26.4063 9.25566 26.7069 8.71773C29.1277 9.14491 31.4534 9.87271 33.6368 10.9011C37.434 16.5811 39.3168 22.9889 38.6523 30.3776C35.7569 32.5451 32.9248 33.8583 30.1561 34.7285Z" />
<path d="M27.5615 19.5557C25.8686 19.5557 24.5396 21.1062 24.5396 22.989C24.5396 24.8717 25.9002 26.4223 27.5615 26.4223C29.2544 26.4223 30.5834 24.8717 30.5834 22.989C30.6151 21.1062 29.2544 19.5557 27.5615 19.5557Z" />
<path d="M16.4072 19.5557C14.7143 19.5557 13.3853 21.1062 13.3853 22.989C13.3853 24.8717 14.7459 26.4223 16.4072 26.4223C18.0843 26.4223 19.4291 24.8717 19.4291 22.989C19.4608 21.1062 18.1001 19.5557 16.4072 19.5557Z" />
</svg>
