<svg width="44" height="44" viewBox="0 0 44 44" fill="none" xmlns="http://www.w3.org/2000/svg">
<path fill-rule="evenodd" clip-rule="evenodd" d="M22 0C16.0918 0.078531 10.4565 2.49436 6.33177 6.71684C2.20706 10.9393 -0.0696856 16.6231 0.00162608 22.5198C-0.0388243 27.2048 1.38889 31.7853 4.08511 35.6206C6.78132 39.456 10.6112 42.3544 15.0391 43.9105C15.2156 43.9852 15.4083 44.0138 15.599 43.9938C15.7898 43.9737 15.9722 43.9056 16.1293 43.7959C16.2864 43.6861 16.413 43.5383 16.4972 43.3663C16.5813 43.1944 16.6203 43.0039 16.6104 42.8127C16.6104 42.2795 16.6104 40.8681 16.6104 38.9862C10.498 40.3506 9.20952 35.9752 9.20952 35.9752C8.81122 34.6213 7.94205 33.4535 6.75827 32.6819C4.7627 31.2862 6.9154 31.3176 6.9154 31.3176C7.61532 31.4193 8.28249 31.68 8.86548 32.0797C9.44848 32.4794 9.93174 33.0074 10.278 33.6229C10.574 34.1677 10.975 34.6487 11.4578 35.0383C11.9407 35.428 12.4959 35.7186 13.0916 35.8935C13.6874 36.0683 14.3118 36.124 14.9292 36.0573C15.5465 35.9906 16.1446 35.8028 16.689 35.5048C16.7772 34.3691 17.2674 33.3018 18.0717 32.4938C13.2007 31.9292 8.06246 29.9846 8.06246 21.3593C8.02729 19.1341 8.83543 16.9776 10.3251 15.3216C9.62593 13.4043 9.67077 11.2953 10.4509 9.40939C10.4509 9.40939 12.2893 8.81346 16.5004 11.7147C18.2893 11.199 20.1383 10.9196 22 10.8835C23.8633 10.8952 25.7173 11.1482 27.5153 11.6363C31.7107 8.73505 33.5491 9.40939 33.5491 9.40939C34.3721 11.2972 34.4507 13.4255 33.7691 15.3687C35.2589 17.0247 36.067 19.1811 36.0318 21.4064C36.0318 30.063 30.8936 31.9606 25.9911 32.5251C26.5183 33.0777 26.9235 33.7344 27.1806 34.4529C27.4377 35.1714 27.5411 35.9358 27.4839 36.6966C27.4839 39.6919 27.4839 42.1227 27.4839 42.8598C27.4839 43.5968 27.8767 44.1614 29.0552 43.9419C33.4719 42.3703 37.2863 39.4608 39.9655 35.6201C42.6446 31.7794 44.0546 27.1993 43.9984 22.5198C44.0697 16.6231 41.7929 10.9393 37.6682 6.71684C33.5435 2.49436 27.9082 0.078531 22 0Z" />
</svg>
