<svg width="140" height="38" viewBox="0 0 140 38" fill="none" xmlns="http://www.w3.org/2000/svg">
<path d="M16.1969 8.39504C18.4749 8.39504 20.3215 6.51574 20.3215 4.19752C20.3215 1.87929 18.4749 0 16.1969 0C13.9189 0 12.0723 1.87929 12.0723 4.19752C12.0723 6.51574 13.9189 8.39504 16.1969 8.39504Z" fill="white"/>
<path d="M16.1969 33C18.4749 33 20.3215 31.1207 20.3215 28.8025C20.3215 26.4843 18.4749 24.605 16.1969 24.605C13.9189 24.605 12.0723 26.4843 12.0723 28.8025C12.0723 31.1207 13.9189 33 16.1969 33Z" fill="white"/>
<path d="M28.3024 20.6807C30.5803 20.6807 32.427 18.8014 32.427 16.4832C32.427 14.1649 30.5803 12.2856 28.3024 12.2856C26.0244 12.2856 24.1777 14.1649 24.1777 16.4832C24.1777 18.8014 26.0244 20.6807 28.3024 20.6807Z" fill="white"/>
<path d="M4.12462 20.6807C6.40259 20.6807 8.24925 18.8014 8.24925 16.4832C8.24925 14.1649 6.40259 12.2856 4.12462 12.2856C1.84666 12.2856 0 14.1649 0 16.4832C0 18.8014 1.84666 20.6807 4.12462 20.6807Z" fill="white"/>
<path d="M16.2156 9.81045L9.64746 16.4946L16.2156 23.1788L22.7837 16.4946L16.2156 9.81045Z" fill="white"/>
<path d="M23.6074 8.97509V1.80859L30.6495 8.97509H23.6074Z" fill="white"/>
<path d="M8.81939 8.97509H1.77734L8.81939 1.80859V8.97509Z" fill="white"/>
<path d="M8.81939 24.0249V31.1914L1.77734 24.0249H8.81939Z" fill="white"/>
<path d="M23.6074 24.0249H30.6495L23.6074 31.1914V24.0249Z" fill="white"/>
<path d="M53.352 11.824L51.924 10.48C51.564 10.984 50.928 11.344 50.124 11.344C48.708 11.344 47.712 10.288 47.712 8.74C47.712 7.24 48.732 6.136 50.16 6.136C50.808 6.136 51.492 6.388 51.876 6.916L53.268 5.524C52.56 4.708 51.276 4.276 50.088 4.276C47.496 4.276 45.48 6.016 45.48 8.74C45.48 11.404 47.436 13.228 50.052 13.228C51.48 13.228 52.608 12.688 53.352 11.824ZM65.2268 8.716C65.2268 5.992 63.2588 4.276 60.5948 4.276C57.9428 4.276 55.9748 5.992 55.9748 8.716C55.9748 11.404 57.9428 13.228 60.5948 13.228C63.2588 13.228 65.2268 11.404 65.2268 8.716ZM63.0308 8.716C63.0308 10.252 62.0228 11.356 60.5948 11.356C59.1668 11.356 58.1708 10.252 58.1708 8.716C58.1708 7.228 59.1548 6.124 60.5948 6.124C62.0348 6.124 63.0308 7.228 63.0308 8.716ZM74.2099 13V11.212H70.9219V4.504H68.8579V13H74.2099ZM85.947 8.716C85.947 5.992 83.979 4.276 81.315 4.276C78.663 4.276 76.695 5.992 76.695 8.716C76.695 11.404 78.663 13.228 81.315 13.228C83.979 13.228 85.947 11.404 85.947 8.716ZM83.751 8.716C83.751 10.252 82.743 11.356 81.315 11.356C79.887 11.356 78.891 10.252 78.891 8.716C78.891 7.228 79.875 6.124 81.315 6.124C82.755 6.124 83.751 7.228 83.751 8.716ZM97.306 13V4.504H95.314L95.362 10.048H95.326L91.918 4.504H89.578V13H91.57L91.522 7.444H91.558L94.978 13H97.306ZM108.731 4.504H106.331L104.519 7.648L102.707 4.504H100.223L103.415 9.4V13H105.467V9.4L108.731 4.504ZM53.808 25.728C53.808 22.512 51.36 21.504 48.948 21.504H45.876V30H49.044C51.384 30 53.808 28.716 53.808 25.728ZM51.672 25.728C51.672 27.624 50.316 28.224 48.852 28.224H47.88V23.256H48.9C50.316 23.256 51.672 23.82 51.672 25.728ZM66.305 25.716C66.305 22.992 64.337 21.276 61.673 21.276C59.021 21.276 57.053 22.992 57.053 25.716C57.053 28.404 59.021 30.228 61.673 30.228C64.337 30.228 66.305 28.404 66.305 25.716ZM64.109 25.716C64.109 27.252 63.101 28.356 61.673 28.356C60.245 28.356 59.249 27.252 59.249 25.716C59.249 24.228 60.233 23.124 61.673 23.124C63.113 23.124 64.109 24.228 64.109 25.716ZM77.412 28.824L75.984 27.48C75.624 27.984 74.988 28.344 74.184 28.344C72.768 28.344 71.772 27.288 71.772 25.74C71.772 24.24 72.792 23.136 74.22 23.136C74.868 23.136 75.552 23.388 75.936 23.916L77.328 22.524C76.62 21.708 75.336 21.276 74.148 21.276C71.556 21.276 69.54 23.016 69.54 25.74C69.54 28.404 71.496 30.228 74.112 30.228C75.54 30.228 76.668 29.688 77.412 28.824ZM86.3675 22.332C85.6235 21.648 84.5435 21.288 83.5835 21.288C81.9995 21.288 80.2955 22.068 80.2955 23.952C80.2955 25.488 81.3875 26.04 82.4675 26.388C83.5835 26.748 84.2315 26.952 84.2315 27.6C84.2315 28.284 83.6795 28.524 83.0555 28.524C82.3835 28.524 81.6275 28.14 81.2195 27.624L79.8755 28.992C80.6195 29.772 81.8435 30.216 83.0555 30.216C84.7355 30.216 86.3075 29.34 86.3075 27.384C86.3075 25.692 84.8195 25.2 83.6675 24.828C82.8635 24.576 82.3595 24.396 82.3595 23.832C82.3595 23.16 83.0195 22.98 83.5475 22.98C84.0755 22.98 84.7115 23.268 85.0595 23.712L86.3675 22.332Z" fill="white"/>
</svg>
