<svg width="463" height="465" viewBox="0 0 463 465" fill="none" xmlns="http://www.w3.org/2000/svg">
<rect x="231" y="117" width="231" height="116" fill="#FAD250"/>
<rect y="117" width="231" height="116" fill="#289BDC"/>
<path d="M115.654 232.932C179.528 232.932 231.308 181.152 231.308 117.279C231.308 53.4046 179.528 1.62439 115.654 1.62439C51.7801 1.62439 0 53.4046 0 117.279C0 181.152 51.7801 232.932 115.654 232.932Z" fill="#FDD2D5"/>
<path d="M0 115.982C0 85.6527 12.1688 56.5654 33.8295 35.1191C55.4903 13.6728 84.8686 1.62439 115.502 1.62439C146.134 1.62439 175.513 13.6728 197.174 35.1191C218.834 56.5654 231.003 85.6527 231.003 115.982H0Z" fill="#289BDC"/>
<path d="M346.654 232.932C410.528 232.932 462.308 181.152 462.308 117.279C462.308 53.4046 410.528 1.62439 346.654 1.62439C282.78 1.62439 231 53.4046 231 117.279C231 181.152 282.78 232.932 346.654 232.932Z" fill="#D8757C"/>
<path d="M115.654 464.308C179.528 464.308 231.308 412.528 231.308 348.654C231.308 284.78 179.528 233 115.654 233C51.7801 233 0 284.78 0 348.654C0 412.528 51.7801 464.308 115.654 464.308Z" fill="#D8757C"/>
<path d="M55 409C55 393.087 61.374 377.826 72.72 366.574C84.0659 355.321 99.4544 349 115.5 349C131.546 349 146.934 355.321 158.28 366.574C169.626 377.826 176 393.087 176 409H55Z" fill="#00284B"/>
<path d="M401.358 14.1801C344.926 -15.7427 274.922 5.74679 245 62.1782L449.356 170.538C479.279 114.107 457.789 44.103 401.358 14.1801Z" fill="#FAD250"/>
<path d="M0.00294464 233L114.003 233L0.00292969 347L0.00294464 233Z" fill="#00284B"/>
<path d="M231.003 233L115.003 233L231.003 349L231.003 233Z" fill="#00284B"/>
<path fill-rule="evenodd" clip-rule="evenodd" d="M346.654 233C378.513 233 407.363 245.882 428.28 266.72L462 233V340.148C462.204 342.957 462.308 345.793 462.308 348.654C462.308 412.528 410.528 464.308 346.654 464.308C282.78 464.308 231 412.528 231 348.654C231 346.758 231.046 344.873 231.136 343H231V233L264.874 266.874C285.804 245.945 314.717 233 346.654 233Z" fill="#F5416E"/>
<path d="M347.355 388.711L382.711 353.355H312L347.355 388.711Z" fill="#00284B"/>
<path d="M388 370L443 360" stroke="white" stroke-width="12"/>
<path d="M252 360L307 370" stroke="white" stroke-width="12"/>
<line x1="388" y1="388" x2="443" y2="388" stroke="white" stroke-width="12"/>
<line x1="252" y1="388" x2="307" y2="388" stroke="white" stroke-width="12"/>
</svg>
