<svg width="109" height="33" viewBox="0 0 109 33" fill="none" xmlns="http://www.w3.org/2000/svg">
<path d="M16.1969 8.39504C18.4749 8.39504 20.3215 6.51574 20.3215 4.19752C20.3215 1.87929 18.4749 0 16.1969 0C13.9189 0 12.0723 1.87929 12.0723 4.19752C12.0723 6.51574 13.9189 8.39504 16.1969 8.39504Z" fill="white"/>
<path d="M16.1969 33C18.4749 33 20.3215 31.1207 20.3215 28.8025C20.3215 26.4843 18.4749 24.605 16.1969 24.605C13.9189 24.605 12.0723 26.4843 12.0723 28.8025C12.0723 31.1207 13.9189 33 16.1969 33Z" fill="white"/>
<path d="M28.3024 20.6807C30.5803 20.6807 32.427 18.8014 32.427 16.4832C32.427 14.1649 30.5803 12.2856 28.3024 12.2856C26.0244 12.2856 24.1777 14.1649 24.1777 16.4832C24.1777 18.8014 26.0244 20.6807 28.3024 20.6807Z" fill="white"/>
<path d="M4.12462 20.6807C6.40259 20.6807 8.24925 18.8014 8.24925 16.4832C8.24925 14.1649 6.40259 12.2856 4.12462 12.2856C1.84666 12.2856 0 14.1649 0 16.4832C0 18.8014 1.84666 20.6807 4.12462 20.6807Z" fill="white"/>
<path d="M16.2156 9.81045L9.64746 16.4946L16.2156 23.1788L22.7837 16.4946L16.2156 9.81045Z" fill="white"/>
<path d="M23.6074 8.97509V1.80859L30.6495 8.97509H23.6074Z" fill="white"/>
<path d="M8.81939 8.97509H1.77734L8.81939 1.80859V8.97509Z" fill="white"/>
<path d="M8.81939 24.0249V31.1914L1.77734 24.0249H8.81939Z" fill="white"/>
<path d="M23.6074 24.0249H30.6495L23.6074 31.1914V24.0249Z" fill="white"/>
<path d="M53.2992 11.0719L51.8712 9.72793C51.5112 10.2319 50.8752 10.5919 50.0712 10.5919C48.6552 10.5919 47.6592 9.53593 47.6592 7.98793C47.6592 6.48793 48.6792 5.38393 50.1072 5.38393C50.7552 5.38393 51.4392 5.63593 51.8232 6.16393L53.2152 4.77193C52.5072 3.95593 51.2232 3.52393 50.0352 3.52393C47.4432 3.52393 45.4272 5.26393 45.4272 7.98793C45.4272 10.6519 47.3832 12.4759 49.9992 12.4759C51.4272 12.4759 52.5552 11.9359 53.2992 11.0719Z" fill="white"/>
<path d="M65.1741 7.96393C65.1741 5.23993 63.2061 3.52393 60.5421 3.52393C57.8901 3.52393 55.9221 5.23993 55.9221 7.96393C55.9221 10.6519 57.8901 12.4759 60.5421 12.4759C63.2061 12.4759 65.1741 10.6519 65.1741 7.96393ZM62.9781 7.96393C62.9781 9.49993 61.9701 10.6039 60.5421 10.6039C59.1141 10.6039 58.1181 9.49993 58.1181 7.96393C58.1181 6.47593 59.1021 5.37193 60.5421 5.37193C61.9821 5.37193 62.9781 6.47593 62.9781 7.96393Z" fill="white"/>
<path d="M74.1571 12.2479V10.4599H70.8691V3.75193H68.8051V12.2479H74.1571Z" fill="white"/>
<path d="M85.8942 7.96393C85.8942 5.23993 83.9262 3.52393 81.2622 3.52393C78.6102 3.52393 76.6422 5.23993 76.6422 7.96393C76.6422 10.6519 78.6102 12.4759 81.2622 12.4759C83.9262 12.4759 85.8942 10.6519 85.8942 7.96393ZM83.6982 7.96393C83.6982 9.49993 82.6902 10.6039 81.2622 10.6039C79.8342 10.6039 78.8382 9.49993 78.8382 7.96393C78.8382 6.47593 79.8222 5.37193 81.2622 5.37193C82.7022 5.37193 83.6982 6.47593 83.6982 7.96393Z" fill="white"/>
<path d="M97.2533 12.2479V3.75193H95.2613L95.3093 9.29593H95.2733L91.8653 3.75193H89.5253V12.2479H91.5173L91.4693 6.69193H91.5053L94.9253 12.2479H97.2533Z" fill="white"/>
<path d="M108.678 3.75193H106.278L104.466 6.89593L102.654 3.75193H100.17L103.362 8.64793V12.2479H105.414V8.64793L108.678 3.75193Z" fill="white"/>
<path d="M53.7552 24.9759C53.7552 21.7599 51.3072 20.7519 48.8952 20.7519H45.8232V29.2479H48.9912C51.3312 29.2479 53.7552 27.9639 53.7552 24.9759ZM51.6192 24.9759C51.6192 26.8719 50.2632 27.4719 48.7992 27.4719H47.8272V22.5039H48.8472C50.2632 22.5039 51.6192 23.0679 51.6192 24.9759Z" fill="white"/>
<path d="M66.2522 24.9639C66.2522 22.2399 64.2842 20.5239 61.6202 20.5239C58.9682 20.5239 57.0002 22.2399 57.0002 24.9639C57.0002 27.6519 58.9682 29.4759 61.6202 29.4759C64.2842 29.4759 66.2522 27.6519 66.2522 24.9639ZM64.0562 24.9639C64.0562 26.4999 63.0482 27.6039 61.6202 27.6039C60.1922 27.6039 59.1962 26.4999 59.1962 24.9639C59.1962 23.4759 60.1802 22.3719 61.6202 22.3719C63.0602 22.3719 64.0562 23.4759 64.0562 24.9639Z" fill="white"/>
<path d="M77.3592 28.0719L75.9312 26.7279C75.5712 27.2319 74.9352 27.5919 74.1312 27.5919C72.7152 27.5919 71.7192 26.5359 71.7192 24.9879C71.7192 23.4879 72.7392 22.3839 74.1672 22.3839C74.8152 22.3839 75.4992 22.6359 75.8832 23.1639L77.2752 21.7719C76.5672 20.9559 75.2832 20.5239 74.0952 20.5239C71.5032 20.5239 69.4872 22.2639 69.4872 24.9879C69.4872 27.6519 71.4432 29.4759 74.0592 29.4759C75.4872 29.4759 76.6152 28.9359 77.3592 28.0719Z" fill="white"/>
<path d="M86.3147 21.5799C85.5707 20.8959 84.4907 20.5359 83.5307 20.5359C81.9467 20.5359 80.2427 21.3159 80.2427 23.1999C80.2427 24.7359 81.3347 25.2879 82.4147 25.6359C83.5307 25.9959 84.1787 26.1999 84.1787 26.8479C84.1787 27.5319 83.6267 27.7719 83.0027 27.7719C82.3307 27.7719 81.5747 27.3879 81.1667 26.8719L79.8227 28.2399C80.5667 29.0199 81.7907 29.4639 83.0027 29.4639C84.6827 29.4639 86.2547 28.5879 86.2547 26.6319C86.2547 24.9399 84.7667 24.4479 83.6147 24.0759C82.8107 23.8239 82.3067 23.6439 82.3067 23.0799C82.3067 22.4079 82.9667 22.2279 83.4947 22.2279C84.0227 22.2279 84.6587 22.5159 85.0067 22.9599L86.3147 21.5799Z" fill="white"/>
</svg>
