<svg width="50" height="50" viewBox="0 0 50 50" fill="none" xmlns="http://www.w3.org/2000/svg">
<path d="M25.0001 12.6701C28.4989 12.6701 31.3352 9.83383 31.3352 6.33507C31.3352 2.83631 28.4989 0 25.0001 0C21.5013 0 18.665 2.83631 18.665 6.33507C18.665 9.83383 21.5013 12.6701 25.0001 12.6701Z" fill="white"/>
<path d="M25.0001 50C28.4989 50 31.3352 47.1637 31.3352 43.665C31.3352 40.1663 28.4989 37.3301 25.0001 37.3301C21.5013 37.3301 18.665 40.1663 18.665 43.665C18.665 47.1637 21.5013 50 25.0001 50Z" fill="white"/>
<path d="M43.6649 31.335C47.1637 31.335 50 28.4987 50 25C50 21.5013 47.1637 18.665 43.6649 18.665C40.1661 18.665 37.3298 21.5013 37.3298 25C37.3298 28.4987 40.1661 31.335 43.6649 31.335Z" fill="white"/>
<path d="M6.33507 31.3348C9.83383 31.3348 12.6701 28.4986 12.6701 24.9999C12.6701 21.5012 9.83383 18.6649 6.33507 18.6649C2.83631 18.6649 0 21.5012 0 24.9999C0 28.4986 2.83631 31.3348 6.33507 31.3348Z" fill="white"/>
<path d="M35.1406 24.9926L24.9998 14.8518L14.8589 24.9926L24.9998 35.1333L35.1406 24.9926Z" fill="white"/>
<path d="M36.4092 13.5909V2.73218L47.2579 13.5909H36.4092Z" fill="white"/>
<path d="M13.5909 13.5909H2.73218L13.5909 2.73218V13.5909Z" fill="white"/>
<path d="M13.5909 36.4089V47.2576L2.73218 36.4089H13.5909Z" fill="white"/>
<path d="M36.4092 36.4089H47.2579L36.4092 47.2576V36.4089Z" fill="white"/>
</svg>
