<svg width="44" height="44" viewBox="0 0 44 44" fill="none" xmlns="http://www.w3.org/2000/svg">
<path d="M22 0C17.6488 0 13.3953 1.29028 9.77746 3.70767C6.15958 6.12506 3.33979 9.56099 1.67466 13.581C0.00953222 17.6009 -0.426141 22.0244 0.422734 26.292C1.27161 30.5596 3.3669 34.4796 6.44366 37.5563C9.52041 40.6331 13.4404 42.7284 17.708 43.5773C21.9756 44.4261 26.3991 43.9905 30.419 42.3253C34.439 40.6602 37.8749 37.8404 40.2923 34.2225C42.7097 30.6047 44 26.3512 44 22C44 19.1109 43.431 16.2501 42.3254 13.581C41.2197 10.9118 39.5992 8.48654 37.5564 6.44365C35.5135 4.40076 33.0882 2.78025 30.419 1.67465C27.7499 0.569047 24.8891 0 22 0ZM33.0352 17.8728C33.0352 18.0752 33.0352 18.2952 33.0352 18.5152C33.0352 25.1064 28.028 32.692 18.8584 32.692C16.1503 32.697 13.4982 31.9209 11.22 30.4568C11.614 30.507 12.0109 30.5306 12.408 30.5272C14.6417 30.5261 16.8106 29.7763 18.568 28.3976C17.5277 28.3761 16.52 28.0305 15.6856 27.409C14.8511 26.7874 14.2313 25.921 13.9128 24.9304C14.223 24.991 14.5384 25.0205 14.8544 25.0184C15.2976 25.0223 15.7391 24.9631 16.1656 24.8424C15.0365 24.6166 14.0206 24.0066 13.2906 23.1161C12.5606 22.2257 12.1616 21.1098 12.1616 19.9584V19.8968C12.8555 20.2809 13.6305 20.4951 14.4232 20.5216C13.7408 20.0647 13.1815 19.4467 12.7947 18.7223C12.4079 17.9978 12.2056 17.1892 12.2056 16.368C12.2011 15.4834 12.4352 14.6139 12.8832 13.8512C14.1313 15.3969 15.6924 16.6611 17.4639 17.5605C19.2354 18.4598 21.1772 18.9742 23.1616 19.0696C23.0733 18.6977 23.029 18.3167 23.0296 17.9344C23.0248 16.9292 23.3236 15.946 23.8871 15.1135C24.4505 14.2811 25.2522 13.6382 26.1872 13.2692C27.1222 12.9001 28.1469 12.8221 29.127 13.0453C30.1071 13.2685 30.997 13.7825 31.68 14.52C32.7927 14.2962 33.8603 13.8888 34.8392 13.3144C34.4684 14.4686 33.6893 15.4479 32.648 16.0688C33.6377 15.9507 34.6044 15.6868 35.5168 15.2856C34.8483 16.2873 34.0082 17.1631 33.0352 17.8728Z" />
</svg>
