<svg width="308" height="301" viewBox="0 0 308 301" fill="none" xmlns="http://www.w3.org/2000/svg">
<path d="M113.478 193.306C84.9721 164.978 46.3109 149.064 5.99999 149.064C-34.3109 149.064 -72.9719 164.978 -101.478 193.306C-129.747 221.399 -145.733 259.42 -145.997 299.124L-294.998 299.124C-294.733 220.155 -263.052 144.477 -206.841 88.6158C-150.393 32.5189 -73.8322 1.00291 6 1.00292C85.8322 1.00292 162.393 32.5189 218.841 88.6158C275.052 144.477 306.733 220.155 306.998 299.124L157.997 299.124C157.733 259.42 141.747 221.399 113.478 193.306Z" stroke="url(#paint0_linear_11_740)" stroke-width="2"/>
<defs>
<linearGradient id="paint0_linear_11_740" x1="308" y1="150.064" x2="-296" y2="150.064" gradientUnits="userSpaceOnUse">
<stop stop-color="#FFBBDC"/>
<stop offset="0.532216" stop-color="#FFBBDC" stop-opacity="0"/>
</linearGradient>
</defs>
</svg>
