<svg width="42" height="41" viewBox="0 0 42 41" fill="none" xmlns="http://www.w3.org/2000/svg">
<path d="M13.0612 6.36621H7.90833C7.19687 6.36621 6.62012 6.93628 6.62012 7.63949V33.1051C6.62012 33.8083 7.19687 34.3784 7.90833 34.3784H13.0612C13.7726 34.3784 14.3494 33.8083 14.3494 33.1051V7.63949C14.3494 6.93628 13.7726 6.36621 13.0612 6.36621Z" stroke-width="1.5" stroke-linecap="round" stroke-linejoin="round"/>
<path d="M6.62012 12.7329H14.3494" stroke-width="1.5" stroke-linecap="round" stroke-linejoin="round"/>
<path d="M20.7907 6.36621H15.6378C14.9264 6.36621 14.3496 6.93628 14.3496 7.63949V33.1051C14.3496 33.8083 14.9264 34.3784 15.6378 34.3784H20.7907C21.5021 34.3784 22.0789 33.8083 22.0789 33.1051V7.63949C22.0789 6.93628 21.5021 6.36621 20.7907 6.36621Z" stroke-width="1.5" stroke-linecap="round" stroke-linejoin="round"/>
<path d="M14.3496 28.0122H22.0789" stroke-width="1.5" stroke-linecap="round" stroke-linejoin="round"/>
<path d="M28.4451 5.94972L23.4468 7.27393C22.7567 7.45676 22.3472 8.15795 22.5322 8.84006L29.2309 33.5417C29.4159 34.2238 30.1253 34.6285 30.8154 34.4457L35.8137 33.1215C36.5038 32.9387 36.9133 32.2375 36.7283 31.5554L30.0296 6.85375C29.8446 6.17163 29.1352 5.76688 28.4451 5.94972Z" stroke-width="1.5" stroke-linecap="round" stroke-linejoin="round"/>
<path d="M27.7471 28.5217L35.2187 26.5322" stroke-width="1.5" stroke-linecap="round" stroke-linejoin="round"/>
<path d="M23.7534 13.7514L31.2251 11.7778" stroke-width="1.5" stroke-linecap="round" stroke-linejoin="round"/>
</svg>
